<?xml version="1.0" encoding="UTF-8"?>
<svg width="15px" height="18px" viewBox="0 0 15 18" version="1.1" xmlns="http://www.w3.org/2000/svg" xmlns:xlink="http://www.w3.org/1999/xlink">
    <!-- Generator: Sketch 46.2 (44496) - http://www.bohemiancoding.com/sketch -->
    <title>Group 22</title>
    <desc>Created with Sketch.</desc>
    <defs></defs>
    <g id="Page-1" stroke="none" stroke-width="1" fill="none" fill-rule="evenodd">
        <g id="Group-22" fill-rule="nonzero" fill="#d7d7d7">
            <path d="M2,8 C1.44771525,8 1,8.44771525 1,9 L1,16 C1,16.5522847 1.44771525,17 2,17 L13,17 C13.5522847,17 14,16.5522847 14,16 L14,9 C14,8.44771525 13.5522847,8 13,8 L2,8 Z M2,7 L13,7 C14.1045695,7 15,7.8954305 15,9 L15,16 C15,17.1045695 14.1045695,18 13,18 L2,18 C0.8954305,18 0,17.1045695 0,16 L0,9 C0,7.8954305 0.8954305,7 2,7 Z" id="Rectangle-24"></path>
            <path d="M12.2731291,4.00692748 C11.6261539,1.93671661 9.70241715,0.5 7.5,0.5 C4.73857625,0.5 2.5,2.73857625 2.5,5.5 C2.5,5.77614237 2.72385763,6 3,6 C3.27614237,6 3.5,5.77614237 3.5,5.5 C3.5,3.290861 5.290861,1.5 7.5,1.5 C9.26195728,1.5 10.8012446,2.64959579 11.3186536,4.30521688 C11.401024,4.56878801 11.681465,4.71568026 11.9450361,4.63330992 C12.2086072,4.55093958 12.3554995,4.27049861 12.2731291,4.00692748 Z" id="Oval-8"></path>
            <polygon id="Line-3" points="2.5 5.5 2.5 7.47493033 3.5 7.47493033 3.5 5.5"></polygon>
        </g>
    </g>
</svg>