<?xml version="1.0" encoding="UTF-8"?>
<svg width="17px" height="19px" viewBox="0 0 17 19" version="1.1" xmlns="http://www.w3.org/2000/svg" xmlns:xlink="http://www.w3.org/1999/xlink">
    <!-- Generator: Sketch 46.2 (44496) - http://www.bohemiancoding.com/sketch -->
    <title>Group 21</title>
    <desc>Created with Sketch.</desc>
    <defs></defs>
    <g id="Page-1" stroke="none" stroke-width="1" fill="none" fill-rule="evenodd">
        <g id="Group-21" fill-rule="nonzero" fill="#d7d7d7">
            <path d="M8.5,10.5 C5.73857625,10.5 3.5,8.26142375 3.5,5.5 C3.5,2.73857625 5.73857625,0.5 8.5,0.5 C11.2614237,0.5 13.5,2.73857625 13.5,5.5 C13.5,8.26142375 11.2614237,10.5 8.5,10.5 Z M8.5,9.5 C10.709139,9.5 12.5,7.709139 12.5,5.5 C12.5,3.290861 10.709139,1.5 8.5,1.5 C6.290861,1.5 4.5,3.290861 4.5,5.5 C4.5,7.709139 6.290861,9.5 8.5,9.5 Z" id="Oval-6"></path>
            <path d="M16.5,18 C16.5,15.5627593 15.5287138,13.2889105 13.8570027,11.6866255 C13.6576448,11.4955469 13.3411335,11.5022586 13.1500549,11.7016165 C12.9589763,11.9009745 12.965688,12.2174858 13.1650459,12.4085644 C14.64008,13.8223403 15.5,15.8354732 15.5,18 C15.5,18.2761424 15.7238576,18.5 16,18.5 C16.2761424,18.5 16.5,18.2761424 16.5,18 Z M8.5,9.5 C4.07425137,9.5 0.5,13.3125348 0.5,18 C0.5,18.2761424 0.723857625,18.5 1,18.5 C1.27614237,18.5 1.5,18.2761424 1.5,18 C1.5,13.8509092 4.64147738,10.5 8.5,10.5 C8.77614237,10.5 9,10.2761424 9,10 C9,9.72385763 8.77614237,9.5 8.5,9.5 Z" id="Oval-7"></path>
        </g>
    </g>
</svg>